<svg xmlns="http://www.w3.org/2000/svg" xmlns:xlink="http://www.w3.org/1999/xlink" width="500" zoomAndPan="magnify" viewBox="0 0 375 374.999991" height="500" preserveAspectRatio="xMidYMid meet" version="1.0"><defs><g/><clipPath id="a951014b80"><path d="M 130.089844 79.867188 L 244.839844 79.867188 L 244.839844 229.867188 L 130.089844 229.867188 Z M 130.089844 79.867188 " clip-rule="nonzero"/></clipPath></defs><rect x="-37.5" width="450" fill="#ffffff" y="-37.499999" height="449.999989" fill-opacity="1"/><rect x="-37.5" width="450" fill="#000000" y="-37.499999" height="449.999989" fill-opacity="1"/><g clip-path="url(#a951014b80)"><path fill="#ffffff" d="M 244.875 115.09375 L 244.875 159.25 L 211.136719 159.25 L 211.136719 113.605469 L 130.117188 113.605469 L 130.117188 79.867188 L 210.132812 79.867188 C 216.347656 86.253906 232.535156 102.648438 244.875 115.09375 Z M 130.117188 196.171875 L 163.855469 229.871094 L 163.855469 192.988281 L 211.140625 192.988281 L 211.140625 159.25 L 130.117188 159.25 Z M 130.117188 196.171875 " fill-opacity="1" fill-rule="nonzero"/></g><g fill="#ffffff" fill-opacity="1"><g transform="translate(137.058713, 270.745295)"><g><path d="M 2.359375 0 L 2.359375 -19.59375 L 10.03125 -19.59375 C 11.613281 -19.59375 12.984375 -19.300781 14.140625 -18.71875 C 15.296875 -18.144531 16.195312 -17.328125 16.84375 -16.265625 C 17.488281 -15.203125 17.8125 -13.953125 17.8125 -12.515625 C 17.8125 -11.097656 17.488281 -9.859375 16.84375 -8.796875 C 16.195312 -7.734375 15.296875 -6.910156 14.140625 -6.328125 C 12.984375 -5.742188 11.613281 -5.453125 10.03125 -5.453125 L 6.796875 -5.453125 L 6.796875 0 Z M 6.78125 -9.296875 L 9.65625 -9.296875 C 10.8125 -9.296875 11.703125 -9.570312 12.328125 -10.125 C 12.953125 -10.675781 13.265625 -11.460938 13.265625 -12.484375 C 13.265625 -13.515625 12.953125 -14.304688 12.328125 -14.859375 C 11.703125 -15.421875 10.8125 -15.703125 9.65625 -15.703125 L 6.78125 -15.703125 Z M 6.78125 -9.296875 "/></g></g></g><g fill="#ffffff" fill-opacity="1"><g transform="translate(160.520172, 270.745295)"><g><path d="M 2.359375 0 L 2.359375 -19.59375 L 6.796875 -19.59375 L 6.796875 0 Z M 2.359375 0 "/></g></g></g><g fill="#ffffff" fill-opacity="1"><g transform="translate(174.518913, 270.745295)"><g><path d="M 0.75 0 L 7.421875 -10.03125 L 1.0625 -19.59375 L 6.15625 -19.59375 L 8.515625 -15.953125 L 10.296875 -13.25 L 14.46875 -19.59375 L 19.546875 -19.59375 L 13.21875 -10.046875 L 19.875 0 L 14.640625 0 L 11.953125 -4.140625 L 10.328125 -6.640625 L 8.6875 -4.140625 L 5.984375 0 Z M 0.75 0 "/></g></g></g><g fill="#ffffff" fill-opacity="1"><g transform="translate(199.996086, 270.745295)"><g><path d="M 2.359375 0 L 2.359375 -19.59375 L 15.234375 -19.59375 L 15.234375 -15.84375 L 6.78125 -15.84375 L 6.78125 -11.78125 L 14.46875 -11.78125 L 14.46875 -8.0625 L 6.78125 -8.0625 L 6.78125 -3.78125 L 15.546875 -3.78125 L 15.546875 0 Z M 2.359375 0 "/></g></g></g><g fill="#ffffff" fill-opacity="1"><g transform="translate(221.805766, 270.745295)"><g><path d="M 2.359375 0 L 2.359375 -19.59375 L 6.796875 -19.59375 L 6.796875 -4.171875 L 15.375 -4.171875 L 15.375 0 Z M 2.359375 0 "/></g></g></g><g fill="#ffffff" fill-opacity="1"><g transform="translate(142.358813, 290.539433)"><g><path d="M 1.578125 0 L 1.578125 -9.796875 L 4.6875 -9.796875 C 5.820312 -9.796875 6.707031 -9.515625 7.34375 -8.953125 C 7.976562 -8.390625 8.296875 -7.597656 8.296875 -6.578125 C 8.296875 -5.554688 7.976562 -4.765625 7.34375 -4.203125 C 6.707031 -3.640625 5.820312 -3.359375 4.6875 -3.359375 L 2.4375 -3.359375 L 2.4375 0 Z M 2.4375 -4.140625 L 4.671875 -4.140625 C 6.523438 -4.140625 7.453125 -4.945312 7.453125 -6.5625 C 7.453125 -8.175781 6.523438 -8.984375 4.671875 -8.984375 L 2.4375 -8.984375 Z M 2.4375 -4.140625 "/></g></g></g><g fill="#ffffff" fill-opacity="1"><g transform="translate(155.765822, 290.539433)"><g><path d="M 1.578125 0 L 1.578125 -9.796875 L 7.34375 -9.796875 L 7.34375 -9 L 2.4375 -9 L 2.4375 -5.390625 L 6.984375 -5.390625 L 6.984375 -4.609375 L 2.4375 -4.609375 L 2.4375 -0.796875 L 7.5 -0.796875 L 7.5 0 Z M 1.578125 0 "/></g></g></g><g fill="#ffffff" fill-opacity="1"><g transform="translate(168.739077, 290.539433)"><g><path d="M 1.578125 0 L 1.578125 -9.796875 L 5.203125 -9.796875 C 5.867188 -9.796875 6.441406 -9.671875 6.921875 -9.421875 C 7.410156 -9.171875 7.789062 -8.816406 8.0625 -8.359375 C 8.332031 -7.910156 8.46875 -7.375 8.46875 -6.75 C 8.46875 -5.9375 8.242188 -5.265625 7.796875 -4.734375 C 7.347656 -4.210938 6.738281 -3.882812 5.96875 -3.75 L 8.625 0 L 7.609375 0 L 4.96875 -3.6875 L 2.4375 -3.6875 L 2.4375 0 Z M 2.4375 -4.5 L 5.125 -4.5 C 5.894531 -4.5 6.5 -4.695312 6.9375 -5.09375 C 7.382812 -5.5 7.609375 -6.050781 7.609375 -6.75 C 7.609375 -7.4375 7.382812 -7.976562 6.9375 -8.375 C 6.5 -8.78125 5.894531 -8.984375 5.125 -8.984375 L 2.4375 -8.984375 Z M 2.4375 -4.5 "/></g></g></g><g fill="#ffffff" fill-opacity="1"><g transform="translate(182.761742, 290.539433)"><g><path d="M 1.578125 0 L 1.578125 -9.796875 L 6.984375 -9.796875 L 6.984375 -9 L 2.4375 -9 L 2.4375 -5.15625 L 6.625 -5.15625 L 6.625 -4.375 L 2.4375 -4.375 L 2.4375 0 Z M 1.578125 0 "/></g></g></g><g fill="#ffffff" fill-opacity="1"><g transform="translate(195.049383, 290.539433)"><g><path d="M 1.578125 0 L 1.578125 -9.796875 L 7.34375 -9.796875 L 7.34375 -9 L 2.4375 -9 L 2.4375 -5.390625 L 6.984375 -5.390625 L 6.984375 -4.609375 L 2.4375 -4.609375 L 2.4375 -0.796875 L 7.5 -0.796875 L 7.5 0 Z M 1.578125 0 "/></g></g></g><g fill="#ffffff" fill-opacity="1"><g transform="translate(208.022639, 290.539433)"><g><path d="M 5.859375 0.1875 C 4.898438 0.1875 4.046875 -0.03125 3.296875 -0.46875 C 2.554688 -0.90625 1.96875 -1.503906 1.53125 -2.265625 C 1.101562 -3.035156 0.890625 -3.914062 0.890625 -4.90625 C 0.890625 -5.894531 1.101562 -6.769531 1.53125 -7.53125 C 1.96875 -8.300781 2.554688 -8.898438 3.296875 -9.328125 C 4.046875 -9.765625 4.898438 -9.984375 5.859375 -9.984375 C 6.609375 -9.984375 7.300781 -9.84375 7.9375 -9.5625 C 8.570312 -9.289062 9.117188 -8.90625 9.578125 -8.40625 C 10.035156 -7.90625 10.367188 -7.3125 10.578125 -6.625 L 9.6875 -6.625 C 9.40625 -7.394531 8.921875 -8.003906 8.234375 -8.453125 C 7.554688 -8.898438 6.769531 -9.125 5.875 -9.125 C 5.082031 -9.125 4.375 -8.945312 3.75 -8.59375 C 3.132812 -8.238281 2.648438 -7.742188 2.296875 -7.109375 C 1.941406 -6.472656 1.765625 -5.738281 1.765625 -4.90625 C 1.765625 -4.070312 1.941406 -3.332031 2.296875 -2.6875 C 2.648438 -2.050781 3.132812 -1.554688 3.75 -1.203125 C 4.375 -0.847656 5.082031 -0.671875 5.875 -0.671875 C 6.789062 -0.671875 7.597656 -0.90625 8.296875 -1.375 C 9.003906 -1.84375 9.492188 -2.484375 9.765625 -3.296875 L 10.671875 -3.296875 C 10.472656 -2.585938 10.140625 -1.972656 9.671875 -1.453125 C 9.203125 -0.929688 8.644531 -0.523438 8 -0.234375 C 7.351562 0.046875 6.640625 0.1875 5.859375 0.1875 Z M 5.859375 0.1875 "/></g></g></g><g fill="#ffffff" fill-opacity="1"><g transform="translate(223.976222, 290.539433)"><g><path d="M 3.90625 0 L 3.90625 -8.984375 L 0.53125 -8.984375 L 0.53125 -9.796875 L 8.140625 -9.796875 L 8.140625 -8.984375 L 4.75 -8.984375 L 4.75 0 Z M 3.90625 0 "/></g></g></g></svg>